<?xml version="1.0" encoding="utf-8"?>
<!-- created with bpmn-js / http://bpmn.io -->
<!DOCTYPE svg PUBLIC "-//W3C//DTD SVG 1.1//EN" "http://www.w3.org/Graphics/SVG/1.1/DTD/svg11.dtd">
<svg xmlns="http://www.w3.org/2000/svg" xmlns:xlink="http://www.w3.org/1999/xlink" width="862" height="511" viewBox="154 74 862 511" version="1.1"><defs><marker id="sequenceflow-end-white-hsl_225_10_15_-5be7dchc3vmdbvjqlm5i21og4" viewBox="0 0 20 20" refX="11" refY="10" markerWidth="10" markerHeight="10" orient="auto"><path d="M 1 5 L 11 10 L 1 15 Z" style="fill: rgb(34, 36, 42); stroke-width: 1px; stroke-linecap: round; stroke-dasharray: 10000, 1; stroke: rgb(34, 36, 42);"/></marker><marker id="association-end-white-hsl_225_10_15_-5be7dchc3vmdbvjqlm5i21og4" viewBox="0 0 20 20" refX="12" refY="10" markerWidth="10" markerHeight="10" orient="auto"><path d="M 1 5 L 11 10 L 1 15" style="fill: none; stroke-width: 1.5px; stroke-linecap: round; stroke-dasharray: 10000, 1; stroke: rgb(34, 36, 42);"/></marker></defs><g class="djs-group"><g class="djs-element djs-shape" data-element-id="Activity_1pgj85x" style="display: block;" transform="matrix(1 0 0 1 160 200)"><g class="djs-visual"><rect x="0" y="0" width="100" height="80" rx="10" ry="10" style="stroke: rgb(34, 36, 42); stroke-width: 2px; fill: white; fill-opacity: 0.95;"/><text lineHeight="1.2" class="djs-label" style="font-family: Arial, sans-serif; font-size: 12px; font-weight: normal; fill: rgb(34, 36, 42);"><tspan x="24.9921875" y="36.4">MASTER </tspan><tspan x="31.6484375" y="50.8">branch</tspan></text></g><rect class="djs-hit djs-hit-all" x="0" y="0" width="100" height="80" style="fill: none; stroke-opacity: 0; stroke: white; stroke-width: 15px;"/><rect x="-6" y="-6" rx="3" width="112" height="92" class="djs-outline" style="fill: none;"/></g></g><g class="djs-group"><g class="djs-element djs-shape" data-element-id="Activity_183uwx3" style="display: block;" transform="matrix(1 0 0 1 380 200)"><g class="djs-visual"><rect x="0" y="0" width="100" height="80" rx="10" ry="10" style="stroke: rgb(34, 36, 42); stroke-width: 2px; fill: white; fill-opacity: 0.95;"/><text lineHeight="1.2" class="djs-label" style="font-family: Arial, sans-serif; font-size: 12px; font-weight: normal; fill: rgb(34, 36, 42);"><tspan x="11.9765625" y="43.599999999999994">ISSUE branch</tspan></text></g><rect class="djs-hit djs-hit-all" x="0" y="0" width="100" height="80" style="fill: none; stroke-opacity: 0; stroke: white; stroke-width: 15px;"/><rect x="-6" y="-6" rx="3" width="112" height="92" class="djs-outline" style="fill: none;"/></g></g><g class="djs-group"><g class="djs-element djs-shape" data-element-id="Activity_0rcvr33" style="display: block;" transform="matrix(1 0 0 1 590 200)"><g class="djs-visual"><rect x="0" y="0" width="100" height="80" rx="10" ry="10" style="stroke: rgb(34, 36, 42); stroke-width: 2px; fill: white; fill-opacity: 0.95;"/><text lineHeight="1.2" class="djs-label" style="font-family: Arial, sans-serif; font-size: 12px; font-weight: normal; fill: rgb(34, 36, 42);"><tspan x="13.2109375" y="36.4">FAST TRACK </tspan><tspan x="31.6484375" y="50.8">branch</tspan></text></g><rect class="djs-hit djs-hit-all" x="0" y="0" width="100" height="80" style="fill: none; stroke-opacity: 0; stroke: white; stroke-width: 15px;"/><rect x="-6" y="-6" rx="3" width="112" height="92" class="djs-outline" style="fill: none;"/></g></g><g class="djs-group"><g class="djs-element djs-shape" data-element-id="Activity_093zy3p" style="display: block;" transform="matrix(1 0 0 1 810 200)"><g class="djs-visual"><rect x="0" y="0" width="100" height="80" rx="10" ry="10" style="stroke: rgb(34, 36, 42); stroke-width: 2px; fill: white; fill-opacity: 0.95;"/><text lineHeight="1.2" class="djs-label" style="font-family: Arial, sans-serif; font-size: 12px; font-weight: normal; fill: rgb(34, 36, 42);"><tspan x="17.568359375" y="29.200000000000003">Proposal for </tspan><tspan x="11.3212890625" y="43.6">Amdendments </tspan><tspan x="23.6484375" y="58">document</tspan></text></g><rect class="djs-hit djs-hit-all" x="0" y="0" width="100" height="80" style="fill: none; stroke-opacity: 0; stroke: white; stroke-width: 15px;"/><rect x="-6" y="-6" rx="3" width="112" height="92" class="djs-outline" style="fill: none;"/></g></g><g class="djs-group"><g class="djs-element djs-shape" data-element-id="DataObjectReference_0j5dja7" style="display: block;" transform="matrix(1 0 0 1 952 215)"><g class="djs-visual"><path d="m 0,0 28.23529411764706,0 7.058823529411765,8.196721311475411 0,40.98360655737705 -35.294117647058826,0 0,-49.18032786885246 28.23529411764706,0 0,8.196721311475411 7.058823529411765,0" style="fill: white; stroke-width: 2px; stroke: rgb(34, 36, 42); fill-opacity: 0.95;"/></g><rect class="djs-hit djs-hit-all" x="0" y="0" width="36" height="50" style="fill: none; stroke-opacity: 0; stroke: white; stroke-width: 15px;"/><rect x="-6" y="-6" rx="3" width="48" height="62" class="djs-outline" style="fill: none;"/></g></g><g class="djs-group"><g class="djs-element djs-shape" data-element-id="Activity_07kmjlz" style="display: block;" transform="matrix(1 0 0 1 690 380)"><g class="djs-visual"><rect x="0" y="0" width="100" height="80" rx="10" ry="10" style="stroke: rgb(34, 36, 42); stroke-width: 2px; fill: white; fill-opacity: 0.95;"/><text lineHeight="1.2" class="djs-label" style="font-family: Arial, sans-serif; font-size: 12px; font-weight: normal; fill: rgb(34, 36, 42);"><tspan x="22.3203125" y="36.4">RELEASE </tspan><tspan x="15.7734375" y="50.8">CANDIDATE</tspan></text></g><rect class="djs-hit djs-hit-all" x="0" y="0" width="100" height="80" style="fill: none; stroke-opacity: 0; stroke: white; stroke-width: 15px;"/><rect x="-6" y="-6" rx="3" width="112" height="92" class="djs-outline" style="fill: none;"/></g></g><g class="djs-group"><g class="djs-element djs-shape" data-element-id="Activity_09lm3w0" style="display: block;" transform="matrix(1 0 0 1 910 380)"><g class="djs-visual"><rect x="0" y="0" width="100" height="80" rx="10" ry="10" style="stroke: rgb(34, 36, 42); stroke-width: 2px; fill: white; fill-opacity: 0.95;"/><text lineHeight="1.2" class="djs-label" style="font-family: Arial, sans-serif; font-size: 12px; font-weight: normal; fill: rgb(34, 36, 42);"><tspan x="22.3203125" y="43.599999999999994">RELEASE</tspan></text></g><rect class="djs-hit djs-hit-all" x="0" y="0" width="100" height="80" style="fill: none; stroke-opacity: 0; stroke: white; stroke-width: 15px;"/><rect x="-6" y="-6" rx="3" width="112" height="92" class="djs-outline" style="fill: none;"/></g></g><g class="djs-group"><g class="djs-element djs-connection" data-element-id="Flow_1tsmo2r" style="display: block;"><g class="djs-visual"><path d="m  260,240L380,240 " style="fill: none; stroke-width: 2px; stroke: rgb(34, 36, 42); stroke-linejoin: round; marker-end: url('#sequenceflow-end-white-hsl_225_10_15_-5be7dchc3vmdbvjqlm5i21og4');"/></g><polyline points="260,240 380,240 " class="djs-hit djs-hit-stroke" style="fill: none; stroke-opacity: 0; stroke: white; stroke-width: 15px;"/><rect x="254" y="234" rx="3" width="132" height="12" class="djs-outline" style="fill: none;"/></g></g><g class="djs-group"><g class="djs-element djs-shape" data-element-id="Flow_1tsmo2r_label" style="display: block;" transform="matrix(1 0 0 1 278 247)"><g class="djs-visual"><text lineHeight="1.2" class="djs-label" style="font-family: Arial, sans-serif; font-size: 11px; font-weight: normal; fill: rgb(34, 36, 42);"><tspan x="0.921875" y="9.899999999999999">1. Create issue </tspan><tspan x="6.4140625" y="23.099999999999998">branch when </tspan><tspan x="3.671875" y="36.3">proprosal is in </tspan><tspan x="0" y="49.5">discussion/or in </tspan><tspan x="14.671875" y="62.7">validation</tspan></text></g><rect class="djs-hit djs-hit-all" x="0" y="0" width="76" height="66" style="fill: none; stroke-opacity: 0; stroke: white; stroke-width: 15px;"/><rect x="-6" y="-6" rx="3" width="88" height="78" class="djs-outline" style="fill: none;"/></g></g><g class="djs-group"><g class="djs-element djs-connection" data-element-id="Flow_0ymfsir" style="display: block;"><g class="djs-visual"><path d="m  480,240L590,240 " style="fill: none; stroke-width: 2px; stroke: rgb(34, 36, 42); stroke-linejoin: round; marker-end: url('#sequenceflow-end-white-hsl_225_10_15_-5be7dchc3vmdbvjqlm5i21og4');"/></g><polyline points="480,240 590,240 " class="djs-hit djs-hit-stroke" style="fill: none; stroke-opacity: 0; stroke: white; stroke-width: 15px;"/><rect x="474" y="234" rx="3" width="122" height="12" class="djs-outline" style="fill: none;"/></g></g><g class="djs-group"><g class="djs-element djs-shape" data-element-id="Flow_0ymfsir_label" style="display: block;" transform="matrix(1 0 0 1 495 246)"><g class="djs-visual"><text lineHeight="1.2" class="djs-label" style="font-family: Arial, sans-serif; font-size: 11px; font-weight: normal; fill: rgb(34, 36, 42);"><tspan x="4.3828125" y="9.899999999999999">3. Merge issue </tspan><tspan x="13.2421875" y="23.099999999999998">branch into </tspan><tspan x="0" y="36.3">FTYYY-# branch </tspan><tspan x="7.4375" y="49.5">when issue is </tspan><tspan x="10.5078125" y="62.7">ready for FT </tspan><tspan x="19.359375" y="75.9">approval</tspan></text></g><rect class="djs-hit djs-hit-all" x="0" y="0" width="81" height="80" style="fill: none; stroke-opacity: 0; stroke: white; stroke-width: 15px;"/><rect x="-6" y="-6" rx="3" width="93" height="92" class="djs-outline" style="fill: none;"/></g></g><g class="djs-group"><g class="djs-element djs-connection" data-element-id="Flow_1tcez7u" style="display: block;"><g class="djs-visual"><path d="m  640,280L640,410 L210,410 L210,280 " style="fill: none; stroke-width: 2px; stroke: rgb(34, 36, 42); stroke-linejoin: round; marker-end: url('#sequenceflow-end-white-hsl_225_10_15_-5be7dchc3vmdbvjqlm5i21og4');"/></g><polyline points="640,280 640,410 210,410 210,280 " class="djs-hit djs-hit-stroke" style="fill: none; stroke-opacity: 0; stroke: white; stroke-width: 15px;"/><rect x="204" y="274" rx="3" width="442" height="142" class="djs-outline" style="fill: none;"/></g></g><g class="djs-group"><g class="djs-element djs-shape" data-element-id="Flow_1tcez7u_label" style="display: block;" transform="matrix(1 0 0 1 385 416)"><g class="djs-visual"><text lineHeight="1.2" class="djs-label" style="font-family: Arial, sans-serif; font-size: 11px; font-weight: normal; fill: rgb(34, 36, 42);"><tspan x="10.40625" y="9.899999999999999">5. Merge FT </tspan><tspan x="0" y="23.099999999999998">branch back into </tspan><tspan x="23.475341796875" y="36.3">master</tspan></text></g><rect class="djs-hit djs-hit-all" x="0" y="0" width="81" height="40" style="fill: none; stroke-opacity: 0; stroke: white; stroke-width: 15px;"/><rect x="-6" y="-6" rx="3" width="93" height="52" class="djs-outline" style="fill: none;"/></g></g><g class="djs-group"><g class="djs-element djs-connection" data-element-id="Flow_17dqkvg" style="display: block;"><g class="djs-visual"><path d="m  210,200L210,80 L640,80 L640,200 " style="fill: none; stroke-width: 2px; stroke: rgb(34, 36, 42); stroke-linejoin: round; marker-end: url('#sequenceflow-end-white-hsl_225_10_15_-5be7dchc3vmdbvjqlm5i21og4');"/></g><polyline points="210,200 210,80 640,80 640,200 " class="djs-hit djs-hit-stroke" style="fill: none; stroke-opacity: 0; stroke: white; stroke-width: 15px;"/><rect x="204" y="74" rx="3" width="442" height="132" class="djs-outline" style="fill: none;"/></g></g><g class="djs-group"><g class="djs-element djs-shape" data-element-id="Flow_17dqkvg_label" style="display: block;" transform="matrix(1 0 0 1 397 86)"><g class="djs-visual"><text lineHeight="1.2" class="djs-label" style="font-family: Arial, sans-serif; font-size: 11px; font-weight: normal; fill: rgb(34, 36, 42);"><tspan x="1.5390625" y="9.899999999999999">2. Create FT </tspan><tspan x="3.0625" y="23.099999999999998">branch from </tspan><tspan x="0.921875" y="36.3">master when </tspan><tspan x="0" y="49.5">preparing the </tspan><tspan x="1.5234375" y="62.7">consolidated </tspan><tspan x="3.294677734375" y="75.9">proposal for </tspan><tspan x="0.6171875" y="89.10000000000001">amendments</tspan></text></g><rect class="djs-hit djs-hit-all" x="0" y="0" width="65" height="93" style="fill: none; stroke-opacity: 0; stroke: white; stroke-width: 15px;"/><rect x="-6" y="-6" rx="3" width="77" height="105" class="djs-outline" style="fill: none;"/></g></g><g class="djs-group"><g class="djs-element djs-connection" data-element-id="DataOutputAssociation_0w0weg6" style="display: block;"><g class="djs-visual"><polyline points="910,242 952,244 " style="fill: none; stroke: rgb(34, 36, 42); stroke-width: 2px; stroke-dasharray: 0.5, 5; stroke-linecap: round; stroke-linejoin: round; marker-end: url('#association-end-white-hsl_225_10_15_-5be7dchc3vmdbvjqlm5i21og4');"/></g><polyline points="910,242 952,244 " class="djs-hit djs-hit-stroke" style="fill: none; stroke-opacity: 0; stroke: white; stroke-width: 15px;"/><rect x="904" y="236" rx="3" width="54" height="14" class="djs-outline" style="fill: none;"/></g></g><g class="djs-group"><g class="djs-element djs-connection" data-element-id="Flow_1it026g" style="display: block;"><g class="djs-visual"><path d="m  690,240L810,240 " style="fill: none; stroke-width: 2px; stroke: rgb(34, 36, 42); stroke-linejoin: round; marker-end: url('#sequenceflow-end-white-hsl_225_10_15_-5be7dchc3vmdbvjqlm5i21og4');"/></g><polyline points="690,240 810,240 " class="djs-hit djs-hit-stroke" style="fill: none; stroke-opacity: 0; stroke: white; stroke-width: 15px;"/><rect x="684" y="234" rx="3" width="132" height="12" class="djs-outline" style="fill: none;"/></g></g><g class="djs-group"><g class="djs-element djs-shape" data-element-id="Flow_1it026g_label" style="display: block;" transform="matrix(1 0 0 1 709 245)"><g class="djs-visual"><text lineHeight="1.2" class="djs-label" style="font-family: Arial, sans-serif; font-size: 11px; font-weight: normal; fill: rgb(34, 36, 42);"><tspan x="14.984375" y="9.899999999999999">4. Create </tspan><tspan x="6.71875" y="23.099999999999998">consolidated </tspan><tspan x="8.489990234375" y="36.3">proposal for </tspan><tspan x="0" y="49.5">amendments in </tspan><tspan x="13.15625" y="62.7">word/PDF </tspan><tspan x="13.453125" y="75.9">document</tspan></text></g><rect class="djs-hit djs-hit-all" x="0" y="0" width="76" height="80" style="fill: none; stroke-opacity: 0; stroke: white; stroke-width: 15px;"/><rect x="-6" y="-6" rx="3" width="88" height="92" class="djs-outline" style="fill: none;"/></g></g><g class="djs-group"><g class="djs-element djs-connection" data-element-id="Flow_01lca67" style="display: block;"><g class="djs-visual"><path d="m  240,280L240,490 L740,490 L740,460 " style="fill: none; stroke-width: 2px; stroke: rgb(34, 36, 42); stroke-linejoin: round; marker-end: url('#sequenceflow-end-white-hsl_225_10_15_-5be7dchc3vmdbvjqlm5i21og4');"/></g><polyline points="240,280 240,490 740,490 740,460 " class="djs-hit djs-hit-stroke" style="fill: none; stroke-opacity: 0; stroke: white; stroke-width: 15px;"/><rect x="234" y="274" rx="3" width="512" height="222" class="djs-outline" style="fill: none;"/></g></g><g class="djs-group"><g class="djs-element djs-shape" data-element-id="Flow_01lca67_label" style="display: block;" transform="matrix(1 0 0 1 450 499)"><g class="djs-visual"><text lineHeight="1.2" class="djs-label" style="font-family: Arial, sans-serif; font-size: 11px; font-weight: normal; fill: rgb(34, 36, 42);"><tspan x="2.51513671875" y="9.899999999999999">6. Always tag a </tspan><tspan x="14.44482421875" y="23.099999999999998">RC before </tspan><tspan x="8.32763671875" y="36.3">creating new </tspan><tspan x="17.431884765625" y="49.5">issues or </tspan><tspan x="0" y="62.7">updating master </tspan><tspan x="26.05419921875" y="75.9">again</tspan></text></g><rect class="djs-hit djs-hit-all" x="0" y="0" width="80" height="80" style="fill: none; stroke-opacity: 0; stroke: white; stroke-width: 15px;"/><rect x="-6" y="-6" rx="3" width="92" height="92" class="djs-outline" style="fill: none;"/></g></g><g class="djs-group"><g class="djs-element djs-connection" data-element-id="Flow_0dm3jyf" style="display: block;"><g class="djs-visual"><path d="m  790,420L910,420 " style="fill: none; stroke-width: 2px; stroke: rgb(34, 36, 42); stroke-linejoin: round; marker-end: url('#sequenceflow-end-white-hsl_225_10_15_-5be7dchc3vmdbvjqlm5i21og4');"/></g><polyline points="790,420 910,420 " class="djs-hit djs-hit-stroke" style="fill: none; stroke-opacity: 0; stroke: white; stroke-width: 15px;"/><rect x="784" y="414" rx="3" width="132" height="12" class="djs-outline" style="fill: none;"/></g></g><g class="djs-group"><g class="djs-element djs-shape" data-element-id="Flow_0dm3jyf_label" style="display: block;" transform="matrix(1 0 0 1 806 430)"><g class="djs-visual"><text lineHeight="1.2" class="djs-label" style="font-family: Arial, sans-serif; font-size: 11px; font-weight: normal; fill: rgb(34, 36, 42);"><tspan x="0" y="9.899999999999999">7. Tag a release </tspan><tspan x="5.40625" y="23.099999999999998">after approval </tspan><tspan x="12.453125" y="36.3">by P/WMO</tspan></text></g><rect class="djs-hit djs-hit-all" x="0" y="0" width="79" height="40" style="fill: none; stroke-opacity: 0; stroke: white; stroke-width: 15px;"/><rect x="-6" y="-6" rx="3" width="91" height="52" class="djs-outline" style="fill: none;"/></g></g></svg>